<?xml version="1.0" encoding="UTF-8" standalone="no"?>
<!-- Created with Inkscape (http://www.inkscape.org/) -->
<svg xmlns:rdf="http://www.w3.org/1999/02/22-rdf-syntax-ns#" xmlns="http://www.w3.org/2000/svg" version="1.1" xmlns:cc="http://creativecommons.org/ns#" xmlns:dc="http://purl.org/dc/elements/1.1/" viewBox="0 0 227.7 80.77">

 <metadata>

  <rdf:RDF>

   <cc:Work rdf:about="">

    <dc:format>image/svg+xml</dc:format>

    <dc:type rdf:resource="http://purl.org/dc/dcmitype/StillImage"/>

    <dc:title/>

   </cc:Work>

  </rdf:RDF>

 </metadata>

 <g fill-rule="evenodd" transform="translate(-145.41711,-900.83495)" fill="#231f20">

  <path d="m200.2,916.4,34.94,0-2.683,8.262-20.23,0-1.099,3.385,20.23,0-2.586,7.965-20.23,0-2.134,6.57-14.71,0,8.502-26.18"/>

  <path d="m160,945.1,45.6,0-3.4,10.52-26.46,0-1.356,4.114,26.46,0-3.2,9.856-26.46,0-2.619,8.064-19.14,0,10.57-32.55"/>

  <path d="m169.2,904.8,13.48,0-0.9375,2.886-3.924,0-2.328,7.168-5.728,0,2.328-7.168-3.828,0,0.9375-2.886zm33.78,0,13.95,0-0.873,2.688-8.218,0-0.5494,1.692,8.218,0-0.6142,1.891-8.218,0-0.4849,1.494,8.218,0-0.7436,2.289-13.95,0,3.265-10.05zm-18.18,0,5.467,0-1.228,3.782,3.982,0,1.228-3.782,5.467,0-3.265,10.05-5.467,0,1.228-3.782-3.982,0-1.228,3.782-5.467,0,3.265-10.05"/>

  <path d="m256.1,945.1,10.52,0-0.7325,2.283-3.062,0-1.816,5.67-4.469,0,1.816-5.67-2.987,0,0.7315-2.283zm-17.04,0h7.932c3.077,0,3.712,1.723,2.954,4.06-0.5966,1.837-2.1,3.868-5.528,3.868h-7.932c0.8584-2.643,1.716-5.285,2.575-7.928zm-23.8,1.382,0.2808,3.956-3.413,0,3.132-3.956zm-3.768-1.382,8.044,0,0.2329,7.928-4.152,0-0.0317-1.067-4.575,0-0.7848,1.067-4.56,0,5.826-7.928zm12.23,0,5.129,0,1.56,4.332,1.407-4.332,4.297,0-2.575,7.928-4.898,0-1.632-4.531-1.472,4.531-4.391,0,2.575-7.928zm18.59,2.23h2.112c1.193,0,1.44,0.7964,1.146,1.877-0.232,0.8501-0.772,1.79-2.101,1.79h-2.347l1.191-3.667zm40.14-2.23,10.89,0-0.6812,2.126-6.412,0-0.4288,1.339,6.412,0-0.48,1.496-6.411,0-0.3788,1.181,6.412,0-0.58,1.811-10.89,0,2.548-7.953zm-14.18,0,4.266,0-0.9588,2.993,3.108,0,0.9588-2.993,4.265,0-2.548,7.953-4.265,0,0.9588-2.993-3.108,0-0.96,2.993-4.265,0,2.548-7.953"/>

  <path d="m293.4,924.6,23.98,0-1.858,5.716-6.936,0-3.962,12.2-10.25,0,3.964-12.2-6.794,0,1.856-5.716zm-2.236,0.1825c-0.515,1.586-1.226,3.565-1.741,5.15-3.348-0.5388-8.242-0.88-12.44-0.5025-0.8725,0.0788-1.879,0.1438-2.185,0.8175-0.5312,1.171,0.5088,1.252,1.511,1.252h5.679c3.756,0,6.764,0.5825,5.618,6.564-1.4,5.807-10.46,5.379-15.39,5.406-3.826,0.0205-8.608-0.2432-12.54-0.9805,0.458-1.409,0.9649-2.967,1.423-4.376,4.191,0.5,9.271,0.8135,13.5,0.4531,1.558-0.1328,1.824-0.4829,1.836-1.026,0.0138-0.5892-0.0975-0.8355-1.794-0.9005-2.618-0.1-7.568-0.0337-8.885-0.4-2.897-0.8038-3.46-3.462-2.395-6.744,1.526-4.699,6.399-5.672,14.04-5.655,5.748,0.0137,11.19,0.465,13.76,0.9412zm-51.82-0.1825,18.1,0,0.5274,17.92-10.08,0-0.0718-2.438-8.998,0-1.857,2.438-11.27,0,13.65-17.92zm8.132,4.112,0.2178,7.409-5.862,0,5.644-7.409"/>

  <path d="m369.1,956.6c-0.515,1.586-1.226,3.566-1.741,5.151-3.346-0.54-8.241-0.8809-12.44-0.5039-0.8725,0.0786-2.046,0.006-2.401,0.77-0.5975,1.286,1.025,1.168,1.826,1.168h5.58c3.756,0,6.762,0.7144,5.616,6.696-1.399,5.806-10.46,5.378-15.39,5.406-3.826,0.0205-8.608-0.2436-12.54-0.9805,0.4575-1.409,0.965-2.967,1.422-4.376,4.191,0.5005,9.271,0.8139,13.5,0.4531,1.559-0.1324,1.825-0.4825,1.838-1.026,0.0138-0.5894-0.0987-0.7886-1.795-0.8531-2.616-0.1-7.566-0.0356-8.885-0.4009-2.896-0.8031-3.46-3.509-2.394-6.79,1.526-4.699,6.399-5.672,14.04-5.654,5.749,0.0131,11.19,0.4642,13.76,0.9399zm-134.8-0.4496,21.43,0c3.928,0,5.057,2.983,4.13,5.96-0.81,2.605-2.856,4.94-6.696,4.94h-2.775l7,7.463h-11.89l-4.904-6.529-2.12,6.529h-10.14l5.963-18.36zm8.57,4.835,5.448,0c3.022,0,1.63,4.239-1.805,4.239h-5.02l1.376-4.239zm51.75-5.629c12.13,0,14.43,3.85,12.52,9.772-2.255,7.015-4.398,10.06-17.99,10.06-14.25,0-13.49-5.121-11.58-11.03,2.06-6.41,6.622-8.795,17.05-8.795zm-1.188,6.059c3.456,0,3.886,1.79,2.998,4.545-1.052,3.263-1.842,4.678-5.715,4.678-4.062,0-3.545-2.382-2.658-5.132,0.9625-2.982,2.402-4.091,5.375-4.091zm-27.13-5.265,10.14,0-5.964,18.36-10.14,0,5.963-18.36zm47.3,0,10.14,0c-1.184,3.644-2.575,7.93-3.759,11.57-0.58,1.786-0.1562,3.102,1.869,3.102,2.172,0,3.078-1.15,3.915-3.732l3.554-10.94h10.14c-1.409,4.336-2.818,8.673-4.225,13.01-1.309,4.028-5.001,6.412-14.69,6.412-9.14,0-12.52-2.243-11.18-6.396l4.23-13.03zm-109.4,0,10.14,0c-1.184,3.644-2.575,7.93-3.758,11.57-0.58,1.786-0.1562,3.102,1.869,3.102,2.172,0,3.077-1.15,3.915-3.732l3.554-10.94h10.14c-1.409,4.336-2.816,8.673-4.224,13.01-1.309,4.028-5.002,6.412-14.69,6.412-9.14,0-12.52-2.243-11.17-6.396l4.23-13.03"/>

 </g>

</svg>